<svg width="216" height="100" viewBox="0 0 216 100" fill="none" xmlns="http://www.w3.org/2000/svg">
<rect x="0.5" y="0.5" width="69" height="99" rx="9.5" fill="#0D1117"/>
<path d="M10 12C10 10.8954 10.8954 10 12 10H22.5V15C22.5 19.1421 19.1421 22.5 15 22.5H10V12Z" fill="#C9D1D9"/>
<path d="M10 35H22.5V42.5C22.5 45.2614 20.2614 47.5 17.5 47.5H10V35Z" fill="#C9D1D9"/>
<path d="M10 22.5H15C19.1421 22.5 22.5 25.8579 22.5 30V35H10V22.5Z" fill="#C9D1D9"/>
<path d="M10 47.5H17.5C20.2614 47.5 22.5 49.7386 22.5 52.5V60H12C10.8954 60 10 59.1046 10 58V47.5Z" fill="#C9D1D9"/>
<path d="M22.5 10H35V22.5H30C25.8579 22.5 22.5 19.1421 22.5 15V10Z" fill="#C9D1D9"/>
<path d="M22.5 35C29.4036 35 35 40.5964 35 47.5H27.5C24.7386 47.5 22.5 45.2614 22.5 42.5V35Z" fill="#C9D1D9"/>
<path d="M22.5 30C22.5 25.8579 25.8579 22.5 30 22.5H35C35 29.4036 29.4036 35 22.5 35V30Z" fill="#C9D1D9"/>
<path d="M22.5 52.5C22.5 49.7386 24.7386 47.5 27.5 47.5H35C35 54.4036 29.4036 60 22.5 60V52.5Z" fill="#C9D1D9"/>
<path d="M35 10H47.5V18.75C47.5 20.8211 45.8211 22.5 43.75 22.5H35V10Z" fill="#C9D1D9"/>
<path d="M35 22.5H43.75C45.8211 22.5 47.5 24.1789 47.5 26.25V35C40.5964 35 35 29.4036 35 22.5Z" fill="#C9D1D9"/>
<path d="M47.5 10H58C59.1046 10 60 10.8954 60 12V22.5H51.25C49.1789 22.5 47.5 20.8211 47.5 18.75V10Z" fill="#C9D1D9"/>
<path d="M47.5 26.25C47.5 24.1789 49.1789 22.5 51.25 22.5H60C60 29.4036 54.4036 35 47.5 35V26.25Z" fill="#C9D1D9"/>
<path d="M22.5 10H12C10.8954 10 10 10.8954 10 12V22.5M22.5 10V15M22.5 10H35M10 22.5H15M10 22.5V35M22.5 15C22.5 19.1421 19.1421 22.5 15 22.5M22.5 15C22.5 19.1421 25.8579 22.5 30 22.5M15 22.5C19.1421 22.5 22.5 25.8579 22.5 30M10 35H22.5M10 35V47.5M22.5 35V42.5M22.5 35V30M22.5 35C29.4036 35 35 40.5964 35 47.5M22.5 35C29.4036 35 35 29.4036 35 22.5M10 47.5H17.5M10 47.5V58C10 59.1046 10.8954 60 12 60H22.5M22.5 42.5C22.5 45.2614 20.2614 47.5 17.5 47.5M22.5 42.5C22.5 45.2614 24.7386 47.5 27.5 47.5M17.5 47.5C20.2614 47.5 22.5 49.7386 22.5 52.5M22.5 30C22.5 25.8579 25.8579 22.5 30 22.5M22.5 60V52.5M22.5 60C29.4036 60 35 54.4036 35 47.5M22.5 52.5C22.5 49.7386 24.7386 47.5 27.5 47.5M35 10V22.5M35 10H47.5M35 22.5H30M35 22.5H43.75M35 22.5C35 29.4036 40.5964 35 47.5 35M35 47.5H27.5M47.5 10V18.75M47.5 10H58C59.1046 10 60 10.8954 60 12V22.5M47.5 18.75C47.5 20.8211 45.8211 22.5 43.75 22.5M47.5 18.75C47.5 20.8211 49.1789 22.5 51.25 22.5M43.75 22.5C45.8211 22.5 47.5 24.1789 47.5 26.25M47.5 35V26.25M47.5 35C54.4036 35 60 29.4036 60 22.5M47.5 26.25C47.5 24.1789 49.1789 22.5 51.25 22.5M60 22.5H51.25" stroke="#0D1117"/>
<path d="M13.01 79.12C12.45 79.12 11.9667 79.03 11.56 78.85C11.16 78.67 10.8367 78.43 10.59 78.13L11.26 77.53C11.4867 77.7767 11.74 77.9667 12.02 78.1C12.3067 78.2267 12.6433 78.29 13.03 78.29C13.3833 78.29 13.6667 78.23 13.88 78.11C14.1 77.99 14.21 77.8033 14.21 77.55C14.21 77.4433 14.19 77.3533 14.15 77.28C14.11 77.2067 14.0533 77.1467 13.98 77.1C13.9067 77.0533 13.82 77.0167 13.72 76.99C13.6267 76.9633 13.5267 76.9433 13.42 76.93L12.6 76.8C12.4 76.7733 12.1967 76.73 11.99 76.67C11.7833 76.61 11.5967 76.5267 11.43 76.42C11.27 76.3067 11.1367 76.1633 11.03 75.99C10.93 75.8167 10.88 75.5967 10.88 75.33C10.88 74.8033 11.08 74.4033 11.48 74.13C11.8867 73.8567 12.42 73.72 13.08 73.72C13.56 73.72 13.9733 73.7933 14.32 73.94C14.6733 74.08 14.9667 74.2767 15.2 74.53L14.59 75.17C14.4567 75.0167 14.2667 74.8767 14.02 74.75C13.7733 74.6167 13.4467 74.55 13.04 74.55C12.3133 74.55 11.95 74.78 11.95 75.24C11.95 75.46 12.0267 75.6133 12.18 75.7C12.34 75.78 12.5267 75.8333 12.74 75.86L13.56 75.99C13.7667 76.0233 13.97 76.0667 14.17 76.12C14.3767 76.1733 14.56 76.2567 14.72 76.37C14.8867 76.4767 15.02 76.6167 15.12 76.79C15.2267 76.9633 15.28 77.1833 15.28 77.45C15.28 77.97 15.0767 78.38 14.67 78.68C14.27 78.9733 13.7167 79.12 13.01 79.12ZM20.8161 79C20.5028 79 20.2661 78.92 20.1061 78.76C19.9528 78.6 19.8594 78.39 19.8261 78.13H19.7761C19.6761 78.4433 19.4928 78.6867 19.2261 78.86C18.9661 79.0333 18.6328 79.12 18.2261 79.12C17.6994 79.12 17.2794 78.9833 16.9661 78.71C16.6528 78.43 16.4961 78.0467 16.4961 77.56C16.4961 77.06 16.6794 76.68 17.0461 76.42C17.4194 76.1533 17.9894 76.02 18.7561 76.02H19.7461V75.62C19.7461 74.92 19.3761 74.57 18.6361 74.57C18.3028 74.57 18.0328 74.6367 17.8261 74.77C17.6194 74.8967 17.4461 75.0667 17.3061 75.28L16.6561 74.75C16.8028 74.47 17.0494 74.23 17.3961 74.03C17.7428 73.8233 18.1894 73.72 18.7361 73.72C19.3894 73.72 19.9028 73.8767 20.2761 74.19C20.6494 74.5033 20.8361 74.9567 20.8361 75.55V78.14H21.4861V79H20.8161ZM18.5361 78.32C18.8894 78.32 19.1794 78.24 19.4061 78.08C19.6328 77.92 19.7461 77.7133 19.7461 77.46V76.71H18.7761C17.9894 76.71 17.5961 76.9467 17.5961 77.42V77.62C17.5961 77.8533 17.6794 78.03 17.8461 78.15C18.0128 78.2633 18.2428 78.32 18.5361 78.32ZM24.8022 79.12C24.2422 79.12 23.7589 79.03 23.3522 78.85C22.9522 78.67 22.6289 78.43 22.3822 78.13L23.0522 77.53C23.2789 77.7767 23.5322 77.9667 23.8122 78.1C24.0989 78.2267 24.4355 78.29 24.8222 78.29C25.1755 78.29 25.4589 78.23 25.6722 78.11C25.8922 77.99 26.0022 77.8033 26.0022 77.55C26.0022 77.4433 25.9822 77.3533 25.9422 77.28C25.9022 77.2067 25.8455 77.1467 25.7722 77.1C25.6989 77.0533 25.6122 77.0167 25.5122 76.99C25.4189 76.9633 25.3189 76.9433 25.2122 76.93L24.3922 76.8C24.1922 76.7733 23.9889 76.73 23.7822 76.67C23.5755 76.61 23.3889 76.5267 23.2222 76.42C23.0622 76.3067 22.9289 76.1633 22.8222 75.99C22.7222 75.8167 22.6722 75.5967 22.6722 75.33C22.6722 74.8033 22.8722 74.4033 23.2722 74.13C23.6789 73.8567 24.2122 73.72 24.8722 73.72C25.3522 73.72 25.7655 73.7933 26.1122 73.94C26.4655 74.08 26.7589 74.2767 26.9922 74.53L26.3822 75.17C26.2489 75.0167 26.0589 74.8767 25.8122 74.75C25.5655 74.6167 25.2389 74.55 24.8322 74.55C24.1055 74.55 23.7422 74.78 23.7422 75.24C23.7422 75.46 23.8189 75.6133 23.9722 75.7C24.1322 75.78 24.3189 75.8333 24.5322 75.86L25.3522 75.99C25.5589 76.0233 25.7622 76.0667 25.9622 76.12C26.1689 76.1733 26.3522 76.2567 26.5122 76.37C26.6789 76.4767 26.8122 76.6167 26.9122 76.79C27.0189 76.9633 27.0722 77.1833 27.0722 77.45C27.0722 77.97 26.8689 78.38 26.4622 78.68C26.0622 78.9733 25.5089 79.12 24.8022 79.12ZM28.5283 71.6H29.6183V74.72H29.6683C29.7216 74.5867 29.7883 74.46 29.8683 74.34C29.9549 74.2133 30.0583 74.1067 30.1783 74.02C30.2983 73.9267 30.4383 73.8533 30.5983 73.8C30.7583 73.7467 30.9449 73.72 31.1583 73.72C31.6783 73.72 32.0983 73.89 32.4183 74.23C32.7383 74.57 32.8983 75.0533 32.8983 75.68V79H31.8083V75.84C31.8083 75.02 31.4516 74.61 30.7383 74.61C30.5983 74.61 30.4616 74.63 30.3283 74.67C30.1949 74.7033 30.0749 74.7567 29.9683 74.83C29.8616 74.9033 29.7749 74.9967 29.7083 75.11C29.6483 75.2233 29.6183 75.3533 29.6183 75.5V79H28.5283V71.6ZM38.5044 79C38.191 79 37.9544 78.92 37.7944 78.76C37.641 78.6 37.5477 78.39 37.5144 78.13H37.4644C37.3644 78.4433 37.181 78.6867 36.9144 78.86C36.6544 79.0333 36.321 79.12 35.9144 79.12C35.3877 79.12 34.9677 78.9833 34.6544 78.71C34.341 78.43 34.1844 78.0467 34.1844 77.56C34.1844 77.06 34.3677 76.68 34.7344 76.42C35.1077 76.1533 35.6777 76.02 36.4444 76.02H37.4344V75.62C37.4344 74.92 37.0644 74.57 36.3244 74.57C35.991 74.57 35.721 74.6367 35.5144 74.77C35.3077 74.8967 35.1344 75.0667 34.9944 75.28L34.3444 74.75C34.491 74.47 34.7377 74.23 35.0844 74.03C35.431 73.8233 35.8777 73.72 36.4244 73.72C37.0777 73.72 37.591 73.8767 37.9644 74.19C38.3377 74.5033 38.5244 74.9567 38.5244 75.55V78.14H39.1744V79H38.5044ZM36.2244 78.32C36.5777 78.32 36.8677 78.24 37.0944 78.08C37.321 77.92 37.4344 77.7133 37.4344 77.46V76.71H36.4644C35.6777 76.71 35.2844 76.9467 35.2844 77.42V77.62C35.2844 77.8533 35.3677 78.03 35.5344 78.15C35.701 78.2633 35.931 78.32 36.2244 78.32ZM13.19 89.12C12.8033 89.12 12.4567 89.0567 12.15 88.93C11.85 88.8033 11.5933 88.6233 11.38 88.39C11.1733 88.1567 11.0133 87.8733 10.9 87.54C10.7933 87.2067 10.74 86.8333 10.74 86.42C10.74 86.0067 10.7933 85.6333 10.9 85.3C11.0133 84.9667 11.1733 84.6833 11.38 84.45C11.5933 84.2167 11.85 84.0367 12.15 83.91C12.4567 83.7833 12.8 83.72 13.18 83.72C13.7133 83.72 14.14 83.8333 14.46 84.06C14.7867 84.2867 15.03 84.58 15.19 84.94L14.34 85.4C14.2467 85.16 14.1033 84.97 13.91 84.83C13.7233 84.69 13.48 84.62 13.18 84.62C12.7667 84.62 12.4467 84.7467 12.22 85C11.9933 85.2467 11.88 85.5767 11.88 85.99V86.85C11.88 87.2567 11.9933 87.5867 12.22 87.84C12.4467 88.0933 12.7733 88.22 13.2 88.22C13.52 88.22 13.78 88.1467 13.98 88C14.1867 87.8533 14.35 87.6533 14.47 87.4L15.27 87.89C15.1033 88.25 14.85 88.5467 14.51 88.78C14.17 89.0067 13.73 89.12 13.19 89.12ZM16.7361 81.6H17.8261V84.72H17.8761C17.9294 84.5867 17.9961 84.46 18.0761 84.34C18.1628 84.2133 18.2661 84.1067 18.3861 84.02C18.5061 83.9267 18.6461 83.8533 18.8061 83.8C18.9661 83.7467 19.1528 83.72 19.3661 83.72C19.8861 83.72 20.3061 83.89 20.6261 84.23C20.9461 84.57 21.1061 85.0533 21.1061 85.68V89H20.0161V85.84C20.0161 85.02 19.6594 84.61 18.9461 84.61C18.8061 84.61 18.6694 84.63 18.5361 84.67C18.4028 84.7033 18.2828 84.7567 18.1761 84.83C18.0694 84.9033 17.9828 84.9967 17.9161 85.11C17.8561 85.2233 17.8261 85.3533 17.8261 85.5V89H16.7361V81.6ZM24.9022 89.12C24.5089 89.12 24.1555 89.0567 23.8422 88.93C23.5289 88.8033 23.2655 88.6233 23.0522 88.39C22.8389 88.1567 22.6755 87.8767 22.5622 87.55C22.4489 87.2167 22.3922 86.8433 22.3922 86.43C22.3922 86.0167 22.4489 85.6433 22.5622 85.31C22.6822 84.9767 22.8455 84.6933 23.0522 84.46C23.2655 84.22 23.5222 84.0367 23.8222 83.91C24.1222 83.7833 24.4555 83.72 24.8222 83.72C25.1822 83.72 25.5089 83.7833 25.8022 83.91C26.0955 84.03 26.3455 84.2033 26.5522 84.43C26.7589 84.6567 26.9155 84.9267 27.0222 85.24C27.1355 85.5533 27.1922 85.9 27.1922 86.28V86.69H23.4922V86.86C23.4922 87.2667 23.6189 87.6 23.8722 87.86C24.1255 88.1133 24.4755 88.24 24.9222 88.24C25.2555 88.24 25.5389 88.17 25.7722 88.03C26.0122 87.8833 26.2055 87.69 26.3522 87.45L27.0322 88.05C26.8589 88.35 26.5922 88.6033 26.2322 88.81C25.8789 89.0167 25.4355 89.12 24.9022 89.12ZM24.8222 84.55C24.6289 84.55 24.4489 84.5833 24.2822 84.65C24.1222 84.7167 23.9822 84.8133 23.8622 84.94C23.7489 85.06 23.6589 85.2033 23.5922 85.37C23.5255 85.5367 23.4922 85.72 23.4922 85.92V85.99H26.0822V85.89C26.0822 85.4833 25.9655 85.16 25.7322 84.92C25.5055 84.6733 25.2022 84.55 24.8222 84.55ZM28.4783 83.84H29.5683V84.72H29.6283C29.7816 84.4067 29.9849 84.1633 30.2383 83.99C30.4916 83.81 30.8083 83.72 31.1883 83.72C31.7949 83.72 32.2783 83.9467 32.6383 84.4C32.9983 84.8533 33.1783 85.5267 33.1783 86.42C33.1783 87.3133 32.9983 87.9867 32.6383 88.44C32.2783 88.8933 31.7949 89.12 31.1883 89.12C30.8083 89.12 30.4916 89.0333 30.2383 88.86C29.9849 88.68 29.7816 88.4333 29.6283 88.12H29.5683V91H28.4783V83.84ZM30.7383 88.23C31.1516 88.23 31.4683 88.1033 31.6883 87.85C31.9149 87.5967 32.0283 87.26 32.0283 86.84V86C32.0283 85.58 31.9149 85.2433 31.6883 84.99C31.4683 84.7367 31.1516 84.61 30.7383 84.61C30.5783 84.61 30.4283 84.63 30.2883 84.67C30.1483 84.71 30.0249 84.77 29.9183 84.85C29.8116 84.93 29.7249 85.03 29.6583 85.15C29.5983 85.2633 29.5683 85.4 29.5683 85.56V87.28C29.5683 87.44 29.5983 87.58 29.6583 87.7C29.7249 87.8133 29.8116 87.91 29.9183 87.99C30.0249 88.07 30.1483 88.13 30.2883 88.17C30.4283 88.21 30.5783 88.23 30.7383 88.23ZM37.6544 88.12H37.6044C37.551 88.2533 37.481 88.3833 37.3944 88.51C37.3144 88.63 37.2144 88.7367 37.0944 88.83C36.9744 88.9167 36.8344 88.9867 36.6744 89.04C36.5144 89.0933 36.3277 89.12 36.1144 89.12C35.5944 89.12 35.1744 88.95 34.8544 88.61C34.5344 88.27 34.3744 87.7867 34.3744 87.16V83.84H35.4644V87C35.4644 87.82 35.821 88.23 36.5344 88.23C36.6744 88.23 36.811 88.2133 36.9444 88.18C37.0777 88.14 37.1977 88.0833 37.3044 88.01C37.411 87.9367 37.4944 87.8467 37.5544 87.74C37.621 87.6267 37.6544 87.4933 37.6544 87.34V83.84H38.7444V89H37.6544V88.12ZM40.3205 81.6H41.4105V84.72H41.4605C41.5138 84.5867 41.5805 84.46 41.6605 84.34C41.7471 84.2133 41.8505 84.1067 41.9705 84.02C42.0905 83.9267 42.2305 83.8533 42.3905 83.8C42.5505 83.7467 42.7371 83.72 42.9505 83.72C43.4705 83.72 43.8905 83.89 44.2105 84.23C44.5305 84.57 44.6905 85.0533 44.6905 85.68V89H43.6005V85.84C43.6005 85.02 43.2438 84.61 42.5305 84.61C42.3905 84.61 42.2538 84.63 42.1205 84.67C41.9871 84.7033 41.8671 84.7567 41.7605 84.83C41.6538 84.9033 41.5671 84.9967 41.5005 85.11C41.4405 85.2233 41.4105 85.3533 41.4105 85.5V89H40.3205V81.6ZM50.2966 89C49.9832 89 49.7466 88.92 49.5866 88.76C49.4332 88.6 49.3399 88.39 49.3066 88.13H49.2566C49.1566 88.4433 48.9732 88.6867 48.7066 88.86C48.4466 89.0333 48.1132 89.12 47.7066 89.12C47.1799 89.12 46.7599 88.9833 46.4466 88.71C46.1332 88.43 45.9766 88.0467 45.9766 87.56C45.9766 87.06 46.1599 86.68 46.5266 86.42C46.8999 86.1533 47.4699 86.02 48.2366 86.02H49.2266V85.62C49.2266 84.92 48.8566 84.57 48.1166 84.57C47.7832 84.57 47.5132 84.6367 47.3066 84.77C47.0999 84.8967 46.9266 85.0667 46.7866 85.28L46.1366 84.75C46.2832 84.47 46.5299 84.23 46.8766 84.03C47.2232 83.8233 47.6699 83.72 48.2166 83.72C48.8699 83.72 49.3832 83.8767 49.7566 84.19C50.1299 84.5033 50.3166 84.9567 50.3166 85.55V88.14H50.9666V89H50.2966ZM48.0166 88.32C48.3699 88.32 48.6599 88.24 48.8866 88.08C49.1132 87.92 49.2266 87.7133 49.2266 87.46V86.71H48.2566C47.4699 86.71 47.0766 86.9467 47.0766 87.42V87.62C47.0766 87.8533 47.1599 88.03 47.3266 88.15C47.4932 88.2633 47.7232 88.32 48.0166 88.32Z" fill="#C9D1D9"/>
<rect x="0.5" y="0.5" width="69" height="99" rx="9.5" stroke="#1B222C"/>
<rect x="80.5" y="0.5" width="135" height="99" rx="9.5" fill="#0D1117"/>
<path d="M97.1293 26.7692C96.1018 26.7692 95.1903 26.6283 94.3949 26.3466C93.6027 26.0682 92.9349 25.6572 92.3913 25.1136C91.8478 24.5734 91.4351 23.9105 91.1534 23.125C90.8717 22.3395 90.7308 21.4429 90.7308 20.4354C90.7308 19.4543 90.8733 18.5727 91.1584 17.7905C91.4434 17.0083 91.8577 16.3421 92.4013 15.7919C92.9482 15.2384 93.6127 14.8158 94.3949 14.5241C95.1771 14.2325 96.0653 14.0866 97.0597 14.0866C98.0109 14.0866 98.8494 14.2358 99.5753 14.5341C100.301 14.8324 100.911 15.2417 101.405 15.7621C101.902 16.2824 102.277 16.879 102.528 17.5518C102.78 18.2247 102.906 18.9356 102.906 19.6847C102.906 20.2083 102.873 20.7204 102.807 21.2209C102.741 21.718 102.618 22.1688 102.439 22.5732C102.263 22.9742 102.008 23.2957 101.673 23.5376C101.342 23.7763 100.911 23.9006 100.381 23.9105C100.099 23.9205 99.8255 23.8873 99.5604 23.8111C99.2952 23.7348 99.0698 23.6122 98.8842 23.4432C98.6986 23.2708 98.5859 23.0521 98.5462 22.7869H98.4865C98.407 22.9825 98.2744 23.1648 98.0888 23.3338C97.9032 23.4995 97.6662 23.6321 97.3778 23.7315C97.0928 23.8277 96.7614 23.8674 96.3835 23.8509C95.9659 23.8343 95.5897 23.7398 95.255 23.5675C94.9202 23.3951 94.6335 23.1565 94.3949 22.8516C94.1596 22.5466 93.9789 22.1854 93.853 21.7678C93.727 21.3501 93.6641 20.8861 93.6641 20.3757C93.6641 19.8852 93.7353 19.446 93.8778 19.0582C94.0204 18.6671 94.2143 18.3307 94.4595 18.049C94.7081 17.764 94.9931 17.5386 95.3146 17.3729C95.6361 17.2071 95.9759 17.1027 96.3338 17.0597C96.6818 17.0199 97.0017 17.0298 97.2933 17.0895C97.585 17.1491 97.8269 17.2403 98.0192 17.3629C98.2147 17.4856 98.3374 17.6198 98.3871 17.7656H98.4517V17.2088H99.6747V21.8224C99.6747 22.0843 99.7427 22.3063 99.8786 22.4886C100.018 22.6709 100.215 22.7621 100.47 22.7621C100.772 22.7621 101.007 22.651 101.176 22.429C101.348 22.2069 101.469 21.8655 101.539 21.4048C101.612 20.9441 101.648 20.3542 101.648 19.6349C101.648 19.1312 101.58 18.6572 101.445 18.2131C101.312 17.7656 101.115 17.3613 100.853 17C100.594 16.6354 100.276 16.3222 99.8984 16.0604C99.5206 15.7985 99.0897 15.5964 98.6058 15.4538C98.1252 15.3113 97.5933 15.2401 97.0099 15.2401C96.2178 15.2401 95.5135 15.3627 94.897 15.608C94.2805 15.8499 93.7602 16.1996 93.3359 16.657C92.915 17.1143 92.5952 17.6629 92.3764 18.3026C92.161 18.9389 92.0533 19.6532 92.0533 20.4453C92.0533 21.2706 92.1643 22.0031 92.3864 22.6428C92.6084 23.2791 92.9366 23.8161 93.3707 24.2536C93.8049 24.6911 94.3419 25.0225 94.9815 25.2479C95.6212 25.4766 96.3587 25.5909 97.1939 25.5909C97.5651 25.5909 97.9297 25.5578 98.2876 25.4915C98.6456 25.4285 98.9638 25.3556 99.2422 25.2727C99.5239 25.1932 99.7344 25.1286 99.8736 25.0788L100.222 26.1676C100.016 26.2637 99.7427 26.3582 99.4013 26.451C99.0632 26.5438 98.6953 26.62 98.2976 26.6797C97.9032 26.7393 97.5137 26.7692 97.1293 26.7692ZM96.6719 22.6328C97.1027 22.6328 97.4491 22.5466 97.7109 22.3743C97.9761 22.2019 98.1667 21.9451 98.2827 21.6037C98.402 21.259 98.4616 20.8281 98.4616 20.3111C98.4583 19.8073 98.3937 19.4062 98.2678 19.108C98.1451 18.8063 97.9529 18.5909 97.6911 18.4616C97.4325 18.3291 97.0994 18.2628 96.6918 18.2628C96.3172 18.2628 95.9974 18.3539 95.7322 18.5362C95.4704 18.7185 95.2699 18.9654 95.1307 19.277C94.9948 19.5885 94.9252 19.9349 94.9219 20.3161C94.9252 20.7171 94.9815 21.0949 95.0909 21.4496C95.2036 21.8009 95.3859 22.0859 95.6378 22.3047C95.893 22.5234 96.2377 22.6328 96.6719 22.6328ZM107.625 24.1541C106.886 24.1541 106.249 23.9867 105.716 23.652C105.185 23.3139 104.778 22.8482 104.493 22.255C104.208 21.6617 104.065 20.9822 104.065 20.2166C104.065 19.4411 104.211 18.7566 104.503 18.1634C104.794 17.5668 105.205 17.1011 105.736 16.7663C106.266 16.4316 106.891 16.2642 107.61 16.2642C108.19 16.2642 108.707 16.3719 109.161 16.5874C109.615 16.7995 109.981 17.0978 110.26 17.4822C110.541 17.8667 110.709 18.3158 110.762 18.8295H109.315C109.236 18.4716 109.053 18.1634 108.768 17.9048C108.486 17.6463 108.109 17.517 107.635 17.517C107.22 17.517 106.857 17.6264 106.546 17.8452C106.238 18.0606 105.997 18.3688 105.825 18.7699C105.653 19.1676 105.566 19.6383 105.566 20.1818C105.566 20.7386 105.651 21.2192 105.82 21.6236C105.989 22.0279 106.228 22.3411 106.536 22.5632C106.848 22.7853 107.214 22.8963 107.635 22.8963C107.916 22.8963 108.172 22.8449 108.4 22.7422C108.632 22.6361 108.826 22.4853 108.982 22.2898C109.141 22.0942 109.252 21.8589 109.315 21.5838H110.762C110.709 22.0777 110.548 22.5185 110.28 22.9062C110.011 23.294 109.651 23.599 109.201 23.821C108.753 24.0431 108.228 24.1541 107.625 24.1541ZM113.698 19.4659V24H112.211V13.8182H113.678V17.6065H113.773C113.952 17.1955 114.225 16.8691 114.593 16.6271C114.961 16.3852 115.441 16.2642 116.035 16.2642C116.558 16.2642 117.016 16.3719 117.407 16.5874C117.801 16.8028 118.106 17.1243 118.322 17.5518C118.54 17.9761 118.65 18.5064 118.65 19.1428V24H117.163V19.3217C117.163 18.7616 117.019 18.3274 116.731 18.0192C116.442 17.7076 116.041 17.5518 115.528 17.5518C115.176 17.5518 114.861 17.6264 114.583 17.7756C114.308 17.9247 114.091 18.1435 113.932 18.4318C113.776 18.7169 113.698 19.0616 113.698 19.4659ZM123.785 24.1541C123.032 24.1541 122.384 23.9934 121.841 23.6719C121.3 23.3471 120.883 22.8913 120.588 22.3047C120.296 21.7147 120.15 21.0237 120.15 20.2315C120.15 19.4493 120.296 18.7599 120.588 18.1634C120.883 17.5668 121.294 17.1011 121.821 16.7663C122.351 16.4316 122.971 16.2642 123.68 16.2642C124.111 16.2642 124.529 16.3355 124.933 16.478C125.337 16.6205 125.7 16.8442 126.022 17.1491C126.343 17.4541 126.597 17.8501 126.782 18.3374C126.968 18.8213 127.061 19.4096 127.061 20.1023V20.6293H120.991V19.5156H125.604C125.604 19.1245 125.525 18.7782 125.366 18.4766C125.206 18.1716 124.983 17.9313 124.694 17.7557C124.409 17.58 124.075 17.4922 123.69 17.4922C123.272 17.4922 122.908 17.5949 122.596 17.8004C122.288 18.0026 122.049 18.2678 121.88 18.5959C121.715 18.9207 121.632 19.2737 121.632 19.6548V20.5249C121.632 21.0353 121.721 21.4695 121.9 21.8274C122.083 22.1854 122.336 22.4588 122.661 22.6477C122.986 22.8333 123.365 22.9261 123.799 22.9261C124.081 22.9261 124.338 22.8864 124.57 22.8068C124.802 22.724 125.003 22.6013 125.172 22.4389C125.341 22.2765 125.47 22.076 125.559 21.8374L126.966 22.0909C126.854 22.5052 126.651 22.8681 126.36 23.1797C126.071 23.4879 125.709 23.7282 125.271 23.9006C124.837 24.0696 124.341 24.1541 123.785 24.1541ZM128.57 26.8636V16.3636H130.022V17.6016H130.146C130.232 17.4425 130.357 17.2585 130.519 17.0497C130.681 16.8409 130.907 16.6586 131.195 16.5028C131.484 16.3438 131.865 16.2642 132.339 16.2642C132.955 16.2642 133.505 16.42 133.989 16.7315C134.473 17.0431 134.853 17.4922 135.128 18.0788C135.406 18.6655 135.545 19.3714 135.545 20.1967C135.545 21.022 135.408 21.7296 135.133 22.3196C134.858 22.9062 134.48 23.3587 133.999 23.6768C133.519 23.9917 132.97 24.1491 132.354 24.1491C131.89 24.1491 131.51 24.0713 131.215 23.9155C130.923 23.7597 130.695 23.5774 130.529 23.3686C130.363 23.1598 130.236 22.9742 130.146 22.8118H130.057V26.8636H128.57ZM130.027 20.1818C130.027 20.7187 130.105 21.1894 130.26 21.5938C130.416 21.9981 130.642 22.3146 130.937 22.5433C131.232 22.7687 131.593 22.8814 132.02 22.8814C132.465 22.8814 132.836 22.7637 133.134 22.5284C133.432 22.2898 133.658 21.9666 133.81 21.5589C133.966 21.1513 134.044 20.6922 134.044 20.1818C134.044 19.678 133.968 19.2256 133.815 18.8246C133.666 18.4235 133.441 18.107 133.139 17.875C132.841 17.643 132.468 17.527 132.02 17.527C131.59 17.527 131.225 17.638 130.927 17.8601C130.632 18.0821 130.408 18.392 130.256 18.7898C130.103 19.1875 130.027 19.6515 130.027 20.1818ZM141.908 20.8331V16.3636H143.4V24H141.938V22.6776H141.858C141.683 23.0852 141.401 23.425 141.013 23.6967C140.629 23.9652 140.15 24.0994 139.576 24.0994C139.086 24.0994 138.652 23.9917 138.274 23.7763C137.899 23.5575 137.604 23.2344 137.389 22.8068C137.177 22.3793 137.071 21.8506 137.071 21.2209V16.3636H138.557V21.0419C138.557 21.5623 138.701 21.9766 138.99 22.2848C139.278 22.593 139.653 22.7472 140.113 22.7472C140.392 22.7472 140.669 22.6776 140.944 22.5384C141.222 22.3991 141.452 22.1887 141.635 21.907C141.82 21.6252 141.911 21.2673 141.908 20.8331ZM146.743 19.4659V24H145.257V13.8182H146.724V17.6065H146.818C146.997 17.1955 147.27 16.8691 147.638 16.6271C148.006 16.3852 148.487 16.2642 149.08 16.2642C149.604 16.2642 150.061 16.3719 150.452 16.5874C150.847 16.8028 151.152 17.1243 151.367 17.5518C151.586 17.9761 151.695 18.5064 151.695 19.1428V24H150.209V19.3217C150.209 18.7616 150.064 18.3274 149.776 18.0192C149.488 17.7076 149.087 17.5518 148.573 17.5518C148.222 17.5518 147.907 17.6264 147.628 17.7756C147.353 17.9247 147.136 18.1435 146.977 18.4318C146.821 18.7169 146.743 19.0616 146.743 19.4659ZM155.761 24.169C155.277 24.169 154.84 24.0795 154.449 23.9006C154.058 23.7183 153.748 23.4548 153.519 23.1101C153.294 22.7654 153.181 22.3428 153.181 21.8423C153.181 21.4115 153.264 21.0568 153.429 20.7784C153.595 20.5 153.819 20.2796 154.101 20.1172C154.382 19.9548 154.697 19.8321 155.045 19.7493C155.393 19.6664 155.748 19.6035 156.109 19.5604C156.567 19.5073 156.938 19.4643 157.223 19.4311C157.508 19.3946 157.715 19.3366 157.844 19.2571C157.973 19.1776 158.038 19.0483 158.038 18.8693V18.8345C158.038 18.4003 157.915 18.0639 157.67 17.8253C157.428 17.5866 157.067 17.4673 156.586 17.4673C156.086 17.4673 155.692 17.5784 155.403 17.8004C155.118 18.0192 154.921 18.2628 154.812 18.5312L153.415 18.2131C153.58 17.7491 153.822 17.3745 154.14 17.0895C154.462 16.8011 154.831 16.5923 155.249 16.4631C155.667 16.3305 156.106 16.2642 156.567 16.2642C156.871 16.2642 157.195 16.3007 157.536 16.3736C157.881 16.4432 158.202 16.5724 158.5 16.7614C158.802 16.9503 159.049 17.2204 159.241 17.5717C159.433 17.9197 159.53 18.3722 159.53 18.929V24H158.078V22.956H158.018C157.922 23.1482 157.778 23.3371 157.586 23.5227C157.393 23.7083 157.147 23.8625 156.845 23.9851C156.543 24.1077 156.182 24.169 155.761 24.169ZM156.084 22.9759C156.495 22.9759 156.847 22.8946 157.138 22.7322C157.433 22.5698 157.657 22.3577 157.809 22.0959C157.965 21.8307 158.043 21.5473 158.043 21.2457V20.2614C157.99 20.3144 157.887 20.3641 157.735 20.4105C157.586 20.4536 157.415 20.4917 157.223 20.5249C157.031 20.5547 156.843 20.5829 156.661 20.6094C156.479 20.6326 156.326 20.6525 156.204 20.669C155.915 20.7055 155.652 20.7668 155.413 20.853C155.178 20.9392 154.989 21.0634 154.846 21.2259C154.707 21.3849 154.638 21.5971 154.638 21.8622C154.638 22.2301 154.773 22.5085 155.045 22.6974C155.317 22.883 155.663 22.9759 156.084 22.9759ZM167.092 18.228L165.745 18.4666C165.688 18.2943 165.599 18.1302 165.476 17.9744C165.357 17.8187 165.194 17.6911 164.989 17.5916C164.783 17.4922 164.526 17.4425 164.218 17.4425C163.797 17.4425 163.446 17.5369 163.164 17.7259C162.883 17.9115 162.742 18.1518 162.742 18.4467C162.742 18.7019 162.836 18.9074 163.025 19.0632C163.214 19.219 163.519 19.3466 163.94 19.446L165.153 19.7244C165.856 19.8868 166.379 20.1371 166.724 20.4751C167.069 20.8132 167.241 21.2524 167.241 21.7926C167.241 22.25 167.108 22.6577 166.843 23.0156C166.581 23.3703 166.215 23.6487 165.745 23.8509C165.277 24.053 164.735 24.1541 164.119 24.1541C163.264 24.1541 162.566 23.9718 162.026 23.6072C161.486 23.2393 161.154 22.7173 161.031 22.0412L162.468 21.8224C162.558 22.197 162.742 22.4804 163.02 22.6726C163.298 22.8615 163.661 22.956 164.109 22.956C164.596 22.956 164.986 22.8549 165.277 22.6527C165.569 22.4472 165.715 22.197 165.715 21.902C165.715 21.6634 165.625 21.4628 165.446 21.3004C165.271 21.138 165 21.0154 164.636 20.9325L163.343 20.6491C162.631 20.4867 162.104 20.2282 161.762 19.8736C161.424 19.5189 161.255 19.0698 161.255 18.5263C161.255 18.0755 161.381 17.6811 161.633 17.343C161.885 17.005 162.233 16.7415 162.677 16.5526C163.121 16.3603 163.63 16.2642 164.203 16.2642C165.029 16.2642 165.678 16.4432 166.152 16.8011C166.626 17.1558 166.939 17.6314 167.092 18.228ZM170.958 24.169C170.474 24.169 170.036 24.0795 169.645 23.9006C169.254 23.7183 168.944 23.4548 168.715 23.1101C168.49 22.7654 168.377 22.3428 168.377 21.8423C168.377 21.4115 168.46 21.0568 168.626 20.7784C168.792 20.5 169.015 20.2796 169.297 20.1172C169.579 19.9548 169.894 19.8321 170.242 19.7493C170.59 19.6664 170.944 19.6035 171.306 19.5604C171.763 19.5073 172.134 19.4643 172.419 19.4311C172.704 19.3946 172.912 19.3366 173.041 19.2571C173.17 19.1776 173.235 19.0483 173.235 18.8693V18.8345C173.235 18.4003 173.112 18.0639 172.867 17.8253C172.625 17.5866 172.264 17.4673 171.783 17.4673C171.282 17.4673 170.888 17.5784 170.6 17.8004C170.315 18.0192 170.117 18.2628 170.008 18.5312L168.611 18.2131C168.777 17.7491 169.019 17.3745 169.337 17.0895C169.658 16.8011 170.028 16.5923 170.446 16.4631C170.863 16.3305 171.302 16.2642 171.763 16.2642C172.068 16.2642 172.391 16.3007 172.733 16.3736C173.077 16.4432 173.399 16.5724 173.697 16.7614C173.999 16.9503 174.246 17.2204 174.438 17.5717C174.63 17.9197 174.726 18.3722 174.726 18.929V24H173.274V22.956H173.215C173.119 23.1482 172.974 23.3371 172.782 23.5227C172.59 23.7083 172.343 23.8625 172.041 23.9851C171.74 24.1077 171.379 24.169 170.958 24.169ZM171.281 22.9759C171.692 22.9759 172.043 22.8946 172.335 22.7322C172.63 22.5698 172.854 22.3577 173.006 22.0959C173.162 21.8307 173.24 21.5473 173.24 21.2457V20.2614C173.187 20.3144 173.084 20.3641 172.931 20.4105C172.782 20.4536 172.612 20.4917 172.419 20.5249C172.227 20.5547 172.04 20.5829 171.858 20.6094C171.675 20.6326 171.523 20.6525 171.4 20.669C171.112 20.7055 170.848 20.7668 170.61 20.853C170.374 20.9392 170.185 21.0634 170.043 21.2259C169.904 21.3849 169.834 21.5971 169.834 21.8622C169.834 22.2301 169.97 22.5085 170.242 22.6974C170.514 22.883 170.86 22.9759 171.281 22.9759ZM182.288 18.228L180.941 18.4666C180.885 18.2943 180.795 18.1302 180.673 17.9744C180.553 17.8187 180.391 17.6911 180.185 17.5916C179.98 17.4922 179.723 17.4425 179.415 17.4425C178.994 17.4425 178.643 17.5369 178.361 17.7259C178.079 17.9115 177.938 18.1518 177.938 18.4467C177.938 18.7019 178.033 18.9074 178.222 19.0632C178.411 19.219 178.715 19.3466 179.136 19.446L180.349 19.7244C181.052 19.8868 181.576 20.1371 181.92 20.4751C182.265 20.8132 182.438 21.2524 182.438 21.7926C182.438 22.25 182.305 22.6577 182.04 23.0156C181.778 23.3703 181.412 23.6487 180.941 23.8509C180.474 24.053 179.932 24.1541 179.315 24.1541C178.46 24.1541 177.763 23.9718 177.222 23.6072C176.682 23.2393 176.351 22.7173 176.228 22.0412L177.665 21.8224C177.754 22.197 177.938 22.4804 178.217 22.6726C178.495 22.8615 178.858 22.956 179.305 22.956C179.793 22.956 180.182 22.8549 180.474 22.6527C180.765 22.4472 180.911 22.197 180.911 21.902C180.911 21.6634 180.822 21.4628 180.643 21.3004C180.467 21.138 180.197 21.0154 179.832 20.9325L178.54 20.6491C177.827 20.4867 177.3 20.2282 176.959 19.8736C176.621 19.5189 176.452 19.0698 176.452 18.5263C176.452 18.0755 176.578 17.6811 176.83 17.343C177.081 17.005 177.429 16.7415 177.874 16.5526C178.318 16.3603 178.827 16.2642 179.4 16.2642C180.225 16.2642 180.875 16.4432 181.349 16.8011C181.823 17.1558 182.136 17.6314 182.288 18.228ZM185.418 19.4659V24H183.932V13.8182H185.399V17.6065H185.493C185.672 17.1955 185.945 16.8691 186.313 16.6271C186.681 16.3852 187.162 16.2642 187.755 16.2642C188.279 16.2642 188.736 16.3719 189.127 16.5874C189.522 16.8028 189.827 17.1243 190.042 17.5518C190.261 17.9761 190.37 18.5064 190.37 19.1428V24H188.884V19.3217C188.884 18.7616 188.739 18.3274 188.451 18.0192C188.163 17.7076 187.762 17.5518 187.248 17.5518C186.897 17.5518 186.582 17.6264 186.303 17.7756C186.028 17.9247 185.811 18.1435 185.652 18.4318C185.496 18.7169 185.418 19.0616 185.418 19.4659ZM194.436 24.169C193.952 24.169 193.515 24.0795 193.124 23.9006C192.733 23.7183 192.423 23.4548 192.194 23.1101C191.969 22.7654 191.856 22.3428 191.856 21.8423C191.856 21.4115 191.939 21.0568 192.104 20.7784C192.27 20.5 192.494 20.2796 192.776 20.1172C193.057 19.9548 193.372 19.8321 193.72 19.7493C194.068 19.6664 194.423 19.6035 194.784 19.5604C195.242 19.5073 195.613 19.4643 195.898 19.4311C196.183 19.3946 196.39 19.3366 196.519 19.2571C196.648 19.1776 196.713 19.0483 196.713 18.8693V18.8345C196.713 18.4003 196.59 18.0639 196.345 17.8253C196.103 17.5866 195.742 17.4673 195.261 17.4673C194.761 17.4673 194.367 17.5784 194.078 17.8004C193.793 18.0192 193.596 18.2628 193.487 18.5312L192.09 18.2131C192.255 17.7491 192.497 17.3745 192.815 17.0895C193.137 16.8011 193.506 16.5923 193.924 16.4631C194.342 16.3305 194.781 16.2642 195.242 16.2642C195.546 16.2642 195.87 16.3007 196.211 16.3736C196.556 16.4432 196.877 16.5724 197.175 16.7614C197.477 16.9503 197.724 17.2204 197.916 17.5717C198.108 17.9197 198.205 18.3722 198.205 18.929V24H196.753V22.956H196.693C196.597 23.1482 196.453 23.3371 196.261 23.5227C196.068 23.7083 195.822 23.8625 195.52 23.9851C195.218 24.1077 194.857 24.169 194.436 24.169ZM194.759 22.9759C195.17 22.9759 195.522 22.8946 195.813 22.7322C196.108 22.5698 196.332 22.3577 196.484 22.0959C196.64 21.8307 196.718 21.5473 196.718 21.2457V20.2614C196.665 20.3144 196.562 20.3641 196.41 20.4105C196.261 20.4536 196.09 20.4917 195.898 20.5249C195.706 20.5547 195.518 20.5829 195.336 20.6094C195.154 20.6326 195.001 20.6525 194.879 20.669C194.59 20.7055 194.327 20.7668 194.088 20.853C193.853 20.9392 193.664 21.0634 193.521 21.2259C193.382 21.3849 193.313 21.5971 193.313 21.8622C193.313 22.2301 193.448 22.5085 193.72 22.6974C193.992 22.883 194.338 22.9759 194.759 22.9759ZM203.922 13.3409L200.641 25.5312H199.314L202.595 13.3409H203.922ZM97.532 33.3636L94.7628 41H93.1719L90.3977 33.3636H91.9936L93.9276 39.2401H94.0071L95.9361 33.3636H97.532ZM103.288 36.0533V37.3409H98.7741V36.0533H103.288ZM108.694 33.3636V34.5568H104.523V33.3636H108.694ZM105.642 31.5341H107.128V38.7578C107.128 39.0462 107.171 39.2633 107.257 39.4091C107.343 39.5516 107.454 39.6494 107.59 39.7024C107.73 39.7521 107.88 39.777 108.043 39.777C108.162 39.777 108.267 39.7687 108.356 39.7521C108.445 39.7356 108.515 39.7223 108.565 39.7124L108.833 40.9403C108.747 40.9735 108.624 41.0066 108.465 41.0398C108.306 41.0762 108.107 41.0961 107.869 41.0994C107.478 41.1061 107.113 41.0365 106.775 40.8906C106.437 40.7448 106.164 40.5194 105.955 40.2145C105.746 39.9096 105.642 39.5268 105.642 39.0661V31.5341ZM111.849 36.4659V41H110.362V30.8182H111.829V34.6065H111.924C112.103 34.1955 112.376 33.8691 112.744 33.6271C113.112 33.3852 113.592 33.2642 114.186 33.2642C114.709 33.2642 115.167 33.3719 115.558 33.5874C115.952 33.8028 116.257 34.1243 116.473 34.5518C116.691 34.9761 116.801 35.5064 116.801 36.1428V41H115.314V36.3217C115.314 35.7616 115.17 35.3274 114.882 35.0192C114.593 34.7076 114.192 34.5518 113.679 34.5518C113.327 34.5518 113.012 34.6264 112.734 34.7756C112.459 34.9247 112.242 35.1435 112.083 35.4318C111.927 35.7169 111.849 36.0616 111.849 36.4659ZM121.936 41.1541C121.183 41.1541 120.535 40.9934 119.992 40.6719C119.451 40.3471 119.034 39.8913 118.739 39.3047C118.447 38.7147 118.301 38.0237 118.301 37.2315C118.301 36.4493 118.447 35.7599 118.739 35.1634C119.034 34.5668 119.445 34.1011 119.972 33.7663C120.502 33.4316 121.122 33.2642 121.831 33.2642C122.262 33.2642 122.68 33.3355 123.084 33.478C123.488 33.6205 123.851 33.8442 124.173 34.1491C124.494 34.4541 124.748 34.8501 124.933 35.3374C125.119 35.8213 125.212 36.4096 125.212 37.1023V37.6293H119.142V36.5156H123.755C123.755 36.1245 123.676 35.7782 123.517 35.4766C123.357 35.1716 123.134 34.9313 122.845 34.7557C122.56 34.58 122.226 34.4922 121.841 34.4922C121.423 34.4922 121.059 34.5949 120.747 34.8004C120.439 35.0026 120.2 35.2678 120.031 35.5959C119.866 35.9207 119.783 36.2737 119.783 36.6548V37.5249C119.783 38.0353 119.872 38.4695 120.051 38.8274C120.234 39.1854 120.487 39.4588 120.812 39.6477C121.137 39.8333 121.516 39.9261 121.95 39.9261C122.232 39.9261 122.489 39.8864 122.721 39.8068C122.953 39.724 123.154 39.6013 123.323 39.4389C123.492 39.2765 123.621 39.076 123.71 38.8374L125.117 39.0909C125.005 39.5052 124.803 39.8681 124.511 40.1797C124.222 40.4879 123.86 40.7282 123.422 40.9006C122.988 41.0696 122.492 41.1541 121.936 41.1541ZM126.721 41V33.3636H128.148V34.6065H128.242C128.402 34.1856 128.662 33.8575 129.023 33.6222C129.384 33.3835 129.817 33.2642 130.321 33.2642C130.831 33.2642 131.259 33.3835 131.603 33.6222C131.951 33.8608 132.208 34.1889 132.374 34.6065H132.453C132.636 34.1989 132.926 33.8741 133.323 33.6321C133.721 33.3868 134.195 33.2642 134.745 33.2642C135.438 33.2642 136.003 33.4813 136.441 33.9155C136.881 34.3497 137.102 35.0043 137.102 35.8793V41H135.615V36.0185C135.615 35.5014 135.474 35.1269 135.193 34.8949C134.911 34.6629 134.575 34.5469 134.184 34.5469C133.7 34.5469 133.323 34.696 133.055 34.9943C132.787 35.2893 132.652 35.6688 132.652 36.1328V41H131.171V35.924C131.171 35.5097 131.041 35.1766 130.783 34.9247C130.524 34.6728 130.188 34.5469 129.774 34.5469C129.492 34.5469 129.232 34.6214 128.993 34.7706C128.758 34.9164 128.567 35.1203 128.421 35.3821C128.279 35.6439 128.208 35.9472 128.208 36.2919V41H126.721ZM142.245 41.1541C141.493 41.1541 140.845 40.9934 140.302 40.6719C139.761 40.3471 139.344 39.8913 139.049 39.3047C138.757 38.7147 138.611 38.0237 138.611 37.2315C138.611 36.4493 138.757 35.7599 139.049 35.1634C139.344 34.5668 139.755 34.1011 140.282 33.7663C140.812 33.4316 141.432 33.2642 142.141 33.2642C142.572 33.2642 142.989 33.3355 143.394 33.478C143.798 33.6205 144.161 33.8442 144.483 34.1491C144.804 34.4541 145.058 34.8501 145.243 35.3374C145.429 35.8213 145.522 36.4096 145.522 37.1023V37.6293H139.451V36.5156H144.065C144.065 36.1245 143.985 35.7782 143.826 35.4766C143.667 35.1716 143.444 34.9313 143.155 34.7557C142.87 34.58 142.535 34.4922 142.151 34.4922C141.733 34.4922 141.369 34.5949 141.057 34.8004C140.749 35.0026 140.51 35.2678 140.341 35.5959C140.176 35.9207 140.093 36.2737 140.093 36.6548V37.5249C140.093 38.0353 140.182 38.4695 140.361 38.8274C140.543 39.1854 140.797 39.4588 141.122 39.6477C141.447 39.8333 141.826 39.9261 142.26 39.9261C142.542 39.9261 142.799 39.8864 143.031 39.8068C143.263 39.724 143.463 39.6013 143.632 39.4389C143.802 39.2765 143.931 39.076 144.02 38.8374L145.427 39.0909C145.315 39.5052 145.112 39.8681 144.821 40.1797C144.532 40.4879 144.169 40.7282 143.732 40.9006C143.298 41.0696 142.802 41.1541 142.245 41.1541Z" fill="#C9D1D9"/>
<rect x="90.5" y="70.5" width="60" height="19" rx="3.5" fill="url(#paint0_radial_21_74)"/>
<path d="M101.227 78.5455L99.2102 84H98.358L96.3409 78.5455H97.25L98.7557 82.892H98.8125L100.318 78.5455H101.227ZM105.771 81.7699V78.5455H106.609V84H105.771V83.0767H105.714C105.586 83.3537 105.387 83.5893 105.118 83.7834C104.848 83.9751 104.507 84.071 104.095 84.071C103.754 84.071 103.451 83.9964 103.186 83.8473C102.921 83.6958 102.712 83.4685 102.561 83.1655C102.409 82.8601 102.333 82.4754 102.333 82.0114V78.5455H103.172V81.9545C103.172 82.3523 103.283 82.6695 103.505 82.9062C103.73 83.143 104.017 83.2614 104.365 83.2614C104.573 83.2614 104.785 83.2081 105 83.1016C105.218 82.995 105.4 82.8317 105.547 82.6115C105.696 82.3913 105.771 82.1108 105.771 81.7699ZM110.431 84.1136C109.905 84.1136 109.452 83.9976 109.071 83.7656C108.692 83.5312 108.4 83.2045 108.194 82.7855C107.99 82.3641 107.888 81.8741 107.888 81.3153C107.888 80.7566 107.99 80.2642 108.194 79.8381C108.4 79.4096 108.686 79.0758 109.053 78.8366C109.422 78.5952 109.853 78.4744 110.346 78.4744C110.63 78.4744 110.91 78.5218 111.187 78.6165C111.464 78.7112 111.716 78.8651 111.944 79.0781C112.171 79.2888 112.352 79.5682 112.487 79.9162C112.622 80.2642 112.689 80.6927 112.689 81.2017V81.5568H108.485V80.8324H111.837C111.837 80.5246 111.776 80.25 111.653 80.0085C111.532 79.767 111.359 79.5765 111.134 79.4368C110.912 79.2971 110.649 79.2273 110.346 79.2273C110.012 79.2273 109.723 79.3101 109.479 79.4759C109.238 79.6392 109.052 79.8523 108.922 80.1151C108.791 80.3778 108.726 80.6596 108.726 80.9602V81.4432C108.726 81.8551 108.797 82.2043 108.939 82.4908C109.084 82.7749 109.284 82.9915 109.54 83.1406C109.795 83.2874 110.092 83.3608 110.431 83.3608C110.651 83.3608 110.85 83.33 111.028 83.2685C111.207 83.2045 111.363 83.1098 111.493 82.9844C111.623 82.8565 111.724 82.6979 111.795 82.5085L112.604 82.7358C112.519 83.0104 112.376 83.2519 112.175 83.4602C111.973 83.6662 111.725 83.8272 111.429 83.9432C111.133 84.0568 110.8 84.1136 110.431 84.1136ZM116.777 86.0455V78.5455H117.586V79.4119H117.686C117.747 79.3172 117.833 79.1965 117.942 79.0497C118.053 78.9006 118.211 78.768 118.417 78.652C118.626 78.5336 118.907 78.4744 119.263 78.4744C119.722 78.4744 120.127 78.5893 120.477 78.8189C120.827 79.0485 121.101 79.3741 121.297 79.7955C121.494 80.2169 121.592 80.714 121.592 81.2869C121.592 81.8646 121.494 82.3653 121.297 82.7891C121.101 83.2105 120.829 83.5372 120.481 83.7692C120.133 83.9988 119.731 84.1136 119.277 84.1136C118.926 84.1136 118.646 84.0556 118.435 83.9396C118.224 83.8213 118.062 83.6875 117.949 83.5384C117.835 83.3868 117.747 83.2614 117.686 83.1619H117.615V86.0455H116.777ZM117.601 81.2727C117.601 81.6847 117.661 82.0481 117.782 82.3629C117.903 82.6754 118.079 82.9205 118.311 83.098C118.543 83.2732 118.827 83.3608 119.163 83.3608C119.514 83.3608 119.806 83.2685 120.04 83.0838C120.277 82.8968 120.455 82.6458 120.573 82.331C120.694 82.0137 120.754 81.661 120.754 81.2727C120.754 80.8892 120.695 80.5436 120.577 80.2358C120.461 79.9257 120.284 79.6806 120.047 79.5007C119.813 79.3184 119.518 79.2273 119.163 79.2273C118.822 79.2273 118.536 79.3137 118.304 79.4865C118.072 79.657 117.897 79.8961 117.778 80.2038C117.66 80.5092 117.601 80.8655 117.601 81.2727ZM123.709 76.7273V84H122.871V76.7273H123.709ZM126.849 84.1278C126.503 84.1278 126.189 84.0627 125.908 83.9325C125.626 83.8 125.402 83.6094 125.237 83.3608C125.071 83.1098 124.988 82.8068 124.988 82.4517C124.988 82.1392 125.049 81.8859 125.173 81.6918C125.296 81.4953 125.46 81.3414 125.666 81.2301C125.872 81.1188 126.099 81.036 126.348 80.9815C126.599 80.9247 126.851 80.8797 127.104 80.8466C127.436 80.804 127.705 80.772 127.911 80.7507C128.119 80.727 128.27 80.688 128.365 80.6335C128.462 80.5791 128.511 80.4844 128.511 80.3494V80.321C128.511 79.9706 128.415 79.6984 128.223 79.5043C128.034 79.3101 127.746 79.2131 127.36 79.2131C126.96 79.2131 126.646 79.3007 126.419 79.4759C126.192 79.651 126.032 79.8381 125.94 80.0369L125.144 79.7528C125.286 79.4214 125.476 79.1634 125.712 78.9787C125.951 78.7917 126.212 78.6615 126.494 78.5881C126.778 78.5123 127.057 78.4744 127.332 78.4744C127.507 78.4744 127.708 78.4957 127.935 78.5384C128.165 78.5786 128.386 78.6626 128.599 78.7905C128.815 78.9183 128.994 79.1113 129.136 79.3693C129.278 79.6274 129.349 79.973 129.349 80.4062V84H128.511V83.2614H128.468C128.411 83.3797 128.317 83.5064 128.184 83.6413C128.051 83.7763 127.875 83.8911 127.655 83.9858C127.435 84.0805 127.166 84.1278 126.849 84.1278ZM126.977 83.375C127.308 83.375 127.587 83.3099 127.815 83.1797C128.044 83.0495 128.217 82.8814 128.333 82.6754C128.451 82.4695 128.511 82.2528 128.511 82.0256V81.2585C128.475 81.3011 128.397 81.3402 128.276 81.3757C128.158 81.4089 128.021 81.4384 127.864 81.4645C127.71 81.4882 127.56 81.5095 127.413 81.5284C127.269 81.545 127.152 81.5592 127.062 81.571C126.844 81.5994 126.64 81.6456 126.451 81.7095C126.264 81.7711 126.112 81.8646 125.996 81.9901C125.883 82.1132 125.826 82.2812 125.826 82.4943C125.826 82.7855 125.934 83.0057 126.149 83.1548C126.367 83.3016 126.643 83.375 126.977 83.375ZM133.08 86.1591C132.675 86.1591 132.327 86.107 132.036 86.0028C131.745 85.901 131.502 85.7661 131.308 85.598C131.116 85.4323 130.964 85.2547 130.85 85.0653L131.518 84.5966C131.593 84.696 131.689 84.8097 131.805 84.9375C131.921 85.0677 132.08 85.1802 132.281 85.2749C132.485 85.3719 132.751 85.4205 133.08 85.4205C133.52 85.4205 133.884 85.3139 134.17 85.1009C134.457 84.8878 134.6 84.554 134.6 84.0994V82.9915H134.529C134.467 83.0909 134.38 83.214 134.266 83.3608C134.155 83.5052 133.994 83.6342 133.783 83.7479C133.575 83.8591 133.293 83.9148 132.938 83.9148C132.498 83.9148 132.102 83.8106 131.752 83.6023C131.404 83.3939 131.128 83.0909 130.925 82.6932C130.723 82.2955 130.623 81.8125 130.623 81.2443C130.623 80.6856 130.721 80.1991 130.917 79.7848C131.114 79.3681 131.387 79.0462 131.738 78.8189C132.088 78.5893 132.493 78.4744 132.952 78.4744C133.307 78.4744 133.589 78.5336 133.797 78.652C134.008 78.768 134.169 78.9006 134.28 79.0497C134.394 79.1965 134.482 79.3172 134.543 79.4119H134.628V78.5455H135.438V84.1562C135.438 84.625 135.331 85.0062 135.118 85.2997C134.908 85.5956 134.624 85.8123 134.266 85.9496C133.911 86.0893 133.516 86.1591 133.08 86.1591ZM133.052 83.1619C133.388 83.1619 133.672 83.085 133.904 82.9311C134.136 82.7772 134.312 82.5559 134.433 82.267C134.554 81.9782 134.614 81.6326 134.614 81.2301C134.614 80.8371 134.555 80.4903 134.437 80.1896C134.318 79.889 134.143 79.6534 133.911 79.483C133.679 79.3125 133.393 79.2273 133.052 79.2273C132.697 79.2273 132.401 79.3172 132.164 79.4972C131.93 79.6771 131.753 79.9186 131.635 80.2216C131.519 80.5246 131.461 80.8608 131.461 81.2301C131.461 81.6089 131.52 81.9439 131.638 82.2351C131.759 82.5239 131.937 82.7512 132.171 82.9169C132.408 83.0803 132.701 83.1619 133.052 83.1619ZM136.972 84V78.5455H137.81V84H136.972ZM137.398 77.6364C137.235 77.6364 137.094 77.5807 136.976 77.4695C136.86 77.3582 136.802 77.2244 136.802 77.0682C136.802 76.9119 136.86 76.7782 136.976 76.6669C137.094 76.5556 137.235 76.5 137.398 76.5C137.562 76.5 137.701 76.5556 137.817 76.6669C137.936 76.7782 137.995 76.9119 137.995 77.0682C137.995 77.2244 137.936 77.3582 137.817 77.4695C137.701 77.5807 137.562 77.6364 137.398 77.6364ZM140.183 80.7188V84H139.345V78.5455H140.155V79.3977H140.226C140.354 79.1207 140.548 78.8982 140.808 78.7301C141.069 78.5597 141.405 78.4744 141.817 78.4744C142.186 78.4744 142.509 78.5502 142.786 78.7017C143.063 78.8509 143.279 79.0781 143.433 79.3835C143.586 79.6866 143.663 80.0701 143.663 80.5341V84H142.825V80.5909C142.825 80.1624 142.714 79.8286 142.491 79.5895C142.269 79.348 141.964 79.2273 141.575 79.2273C141.308 79.2273 141.069 79.2853 140.858 79.4013C140.65 79.5173 140.485 79.6866 140.364 79.9091C140.244 80.1316 140.183 80.4015 140.183 80.7188Z" fill="#161B22"/>
<rect x="90.5" y="70.5" width="60" height="19" rx="3.5" stroke="url(#paint1_radial_21_74)"/>
<path d="M184.372 75.7727H187.321L189.35 80.7159H189.452L191.48 75.7727H194.429V84.5H192.111V79.4545H192.043L190.1 84.4318H188.702L186.759 79.4205H186.691V84.5H184.372V75.7727ZM197.561 75.7727V84.5H195.192V75.7727H197.561ZM198.086 77.6818V75.7727H205.671V77.6818H203.046V84.5H200.711V77.6818H198.086Z" fill="url(#paint2_angular_21_74)"/>
<rect x="80.5" y="0.5" width="135" height="99" rx="9.5" stroke="#1B222C"/>
<defs>
<radialGradient id="paint0_radial_21_74" cx="0" cy="0" r="1" gradientUnits="userSpaceOnUse" gradientTransform="translate(145.307 73.913) rotate(166.427) scale(51.8754 179.607)">
<stop stop-color="#00FF75"/>
<stop offset="1" stop-color="#00FFC2"/>
</radialGradient>
<radialGradient id="paint1_radial_21_74" cx="0" cy="0" r="1" gradientUnits="userSpaceOnUse" gradientTransform="translate(145.307 73.913) rotate(166.427) scale(51.8754 179.607)">
<stop stop-color="#00FF75"/>
<stop offset="1" stop-color="#00FFC2"/>
</radialGradient>
<radialGradient id="paint2_angular_21_74" cx="0" cy="0" r="1" gradientUnits="userSpaceOnUse" gradientTransform="translate(194.5 80) rotate(86.1859) scale(7.51665 11.5255)">
<stop stop-color="#858E97"/>
<stop offset="1" stop-color="#C9D1D9"/>
</radialGradient>
</defs>
</svg>
